<svg xmlns="http://www.w3.org/2000/svg" viewBox="0 0 300 300" xml:space="preserve"><path fill="#FFC67B" d="M246.722 217.131c0 7.429-6.02 13.456-13.456 13.456H66.731c-7.432 0-13.459-6.027-13.459-13.456 0-7.436 6.027-13.462 13.459-13.462h166.536c7.435.001 13.455 6.027 13.455 13.462z"/><path fill="#FFD39F" d="M67.9 217.131c0-7.436 6.026-13.462 13.457-13.462H66.962c-7.433 0-13.459 6.026-13.459 13.462 0 7.429 6.026 13.456 13.459 13.456h14.395c-7.431 0-13.457-6.027-13.457-13.456z"/><path fill="#FFDA88" d="M212.387 131.222c-5.784-28.39-27.936-52.94-62.389-52.94-34.454 0-57.144 23.092-62.389 52.94L75.94 203.67h148.109l-11.662-72.448z"/><path fill="#FFE2A9" d="M157.48 78.727c-2.433-.265-4.913-.444-7.482-.444-34.454 0-57.144 23.092-62.389 52.94L75.94 203.67h15.172l11.668-72.447c4.843-27.56 24.586-49.318 54.7-52.496z"/><path fill="#FFDA88" d="M149.903 78.282c1.545 0 3.031.107 4.523.203.006-.068.024-.133.024-.203V33.197a4.546 4.546 0 0 0-9.093 0v45.086c0 .065.018.126.018.191 1.497-.092 2.989-.192 4.528-.192z"/><path fill="#FFE2A9" d="M149.725 28.668c-2.427.096-4.369 2.078-4.369 4.529v45.086c0 .065.018.126.018.191 1.439-.089 2.877-.176 4.351-.183V28.668z"/><path fill="#FE6F80" d="M206.473 52.033c-4.931-1.285-9.833-1.937-14.569-1.937-23.087 0-36.579 14.976-40.61 20.247a4.506 4.506 0 0 0-2.551.302c-3.741-4.984-17.316-20.549-40.841-20.549-4.736 0-9.638.653-14.575 1.937-11.49 2.995-11.869 10.046-11.502 12.939 1.432 11.171 20.619 21.732 39.479 21.732 4.114 0 8.122-.512 11.964-1.462-6.18 8.852-11.905 22.265-11.905 41.822a4.546 4.546 0 0 0 9.093 0c0-29.192 14.072-42.488 19.814-46.697 3.777 3.524 11.254 12.916 11.254 32.047a4.546 4.546 0 1 0 9.093 0c0-12.256-2.759-21.248-6.092-27.705a49.451 49.451 0 0 0 13.971 1.995c18.861 0 38.053-10.561 39.479-21.732.373-2.894-.005-9.944-11.502-12.939zM90.846 63.816c-.16-1.243 2.469-2.384 4.772-2.984 4.185-1.091 8.317-1.644 12.284-1.644 16.132 0 26.604 8.964 31.346 14.215-5.387 2.794-11.402 4.207-17.943 4.207-16.576.001-29.855-9.071-30.459-13.794zm87.65 13.795c-6.541 0-12.556-1.413-17.943-4.207 4.748-5.251 15.214-14.215 31.351-14.215 3.96 0 8.093.553 12.278 1.644 2.303.599 4.937 1.74 4.777 2.984-.603 4.722-13.887 13.794-30.463 13.794z"/><path fill="#FFA1AA" d="M86.377 70.781c-.367-2.893.012-9.944 11.502-12.939 4.937-1.285 9.839-1.937 14.575-1.937 23.525 0 36.288 14.741 36.288 14.741-3.741-4.984-17.316-20.549-40.841-20.549-4.736 0-9.638.653-14.575 1.937-11.49 2.995-11.869 10.046-11.502 12.939.444 3.432 2.569 6.802 5.837 9.83-.668-1.322-1.112-2.667-1.284-4.022zM155.201 86.55c3.22 5.276 6.322 13.54 6.322 25.864a4.542 4.542 0 0 0 4.517 4.543c-.313-17.665-7.056-26.716-10.839-30.407zM138.466 84.062c-2.859.707-2.859.707-5.198 1.179-7.275 10.533-11.905 23.604-11.905 41.822a4.546 4.546 0 0 0 4.547 4.546c.018 0 .035-.005.053-.005.249-18.847 6.459-38.889 12.503-47.542z"/><path fill="#FFDA88" d="M149.998 251.697c11.656 0 21.104-9.451 21.104-21.11h-42.209c.001 11.659 9.449 21.11 21.105 21.11z"/><path fill="#FFE2A9" d="M137.27 230.587h-8.377c0 11.659 9.448 21.11 21.104 21.11 1.438 0 2.839-.148 4.185-.42-9.642-1.942-16.912-10.466-16.912-20.69z"/><path fill="#FFDA88" d="M124.75 257.827a4.924 4.924 0 0 1 0 6.965l-5.115 5.115a4.92 4.92 0 0 1-6.962 0 4.927 4.927 0 0 1 0-6.968l5.109-5.112a4.927 4.927 0 0 1 6.968 0zM113.105 244.214a4.924 4.924 0 0 1-4.925 4.922l-7.228.003a4.923 4.923 0 0 1-4.925-4.925 4.92 4.92 0 0 1 4.925-4.925h7.228a4.923 4.923 0 0 1 4.925 4.925zM174.808 257.827a4.924 4.924 0 0 0 0 6.965l5.109 5.115a4.927 4.927 0 0 0 6.968-6.968l-5.115-5.112a4.92 4.92 0 0 0-6.962 0zM186.446 244.214a4.924 4.924 0 0 0 4.925 4.922l7.234.003a4.927 4.927 0 0 0 4.925-4.925 4.927 4.927 0 0 0-4.925-4.925h-7.234a4.923 4.923 0 0 0-4.925 4.925z"/><g><path fill="#FE6F80" d="M179.194 146.108c0-8.01-6.488-14.498-14.498-14.498-7.773 0-14.107 6.131-14.462 13.823l-.047-.021-.024.006c-.361-7.684-6.69-13.808-14.468-13.808-8.004 0-14.498 6.488-14.498 14.498 0 3.562 1.291 6.821 3.422 9.346h-.006l25.586 28.813 25.586-28.813h-.006a14.47 14.47 0 0 0 3.415-9.346z"/></g><g><path fill="#FFA1AA" d="M133.458 155.454h.006a14.443 14.443 0 0 1-3.422-9.346c0-6.46 4.25-11.867 10.087-13.74-1.403-.454-2.877-.758-4.434-.758-8.004 0-14.498 6.488-14.498 14.498 0 3.562 1.291 6.821 3.422 9.346h-.006l25.586 28.813 4.422-4.979-21.163-23.834z"/></g><g><path fill="#161616" d="M233.266 235.133h-9.211a4.546 4.546 0 0 1 0-9.093h9.211c4.917 0 8.915-3.997 8.915-8.909 0-4.916-3.999-8.915-8.915-8.915H66.731c-4.915 0-8.912 3.999-8.912 8.915 0 4.912 3.997 8.909 8.912 8.909H203.91a4.546 4.546 0 0 1 0 9.093H66.731c-9.928 0-18.005-8.076-18.005-18.002 0-9.929 8.078-18.008 18.005-18.008h166.536c9.931 0 18.008 8.079 18.008 18.008 0 9.926-8.078 18.002-18.009 18.002z"/><path fill="#161616" d="M224.055 208.216H75.94a4.547 4.547 0 0 1-4.489-5.268l10.129-62.894c.398-2.482 2.739-4.176 5.211-3.767a4.547 4.547 0 0 1 3.767 5.211l-9.281 57.625h137.441L207.9 131.945c-4.6-22.558-22.555-49.116-57.902-49.116-26.558 0-47.305 14.82-55.497 39.645a4.536 4.536 0 0 1-5.742 2.892 4.546 4.546 0 0 1-2.892-5.742c9.34-28.304 33.913-45.888 64.131-45.888 38.213 0 61.108 28.417 66.844 56.579l11.701 72.632a4.55 4.55 0 0 1-4.488 5.269z"/><path fill="#161616" d="M149.903 78.282c1.545 0 3.031.107 4.529.203 0-.068.017-.133.017-.203V33.197a4.547 4.547 0 0 0-9.093 0v45.086c0 .065.018.126.021.191 1.495-.092 2.987-.192 4.526-.192z"/><path fill="#161616" d="M206.479 52.033c-4.937-1.285-9.839-1.937-14.575-1.937-23.087 0-36.573 14.976-40.61 20.247a4.493 4.493 0 0 0-2.548.302c-3.744-4.984-17.316-20.549-40.844-20.549-4.736 0-9.638.653-14.572 1.937-11.493 2.995-11.872 10.046-11.502 12.939 1.429 11.171 20.619 21.732 39.48 21.732a49.79 49.79 0 0 0 11.961-1.462c-6.18 8.852-11.905 22.265-11.905 41.822a4.546 4.546 0 0 0 9.093 0c0-29.192 14.072-42.488 19.814-46.697 3.777 3.524 11.254 12.916 11.254 32.047a4.546 4.546 0 1 0 9.093 0c0-12.256-2.753-21.248-6.086-27.705a49.42 49.42 0 0 0 13.971 1.995c18.86 0 38.047-10.561 39.479-21.732.366-2.894-.012-9.944-11.503-12.939zM90.846 63.816c-.16-1.243 2.472-2.384 4.774-2.984 4.186-1.091 8.318-1.644 12.281-1.644 16.134 0 26.604 8.964 31.349 14.215-5.387 2.794-11.402 4.207-17.943 4.207-16.575.001-29.857-9.071-30.461-13.794zm87.656 13.795c-6.542 0-12.556-1.413-17.943-4.207 4.742-5.251 15.214-14.215 31.346-14.215 3.966 0 8.098.553 12.284 1.644 2.303.599 4.931 1.74 4.771 2.984-.604 4.722-13.883 13.794-30.458 13.794zM149.998 256.244c-14.144 0-25.651-11.51-25.651-25.657a4.546 4.546 0 0 1 4.546-4.547h42.214a4.546 4.546 0 0 1 4.546 4.547c.001 14.147-11.507 25.657-25.655 25.657zm-15.925-21.111c1.98 6.931 8.369 12.017 15.924 12.017 7.557 0 13.95-5.087 15.93-12.017h-31.854zM124.75 257.827a4.924 4.924 0 0 1 0 6.965l-5.115 5.115a4.92 4.92 0 0 1-6.962 0 4.927 4.927 0 0 1 0-6.968l5.109-5.112a4.927 4.927 0 0 1 6.968 0zM113.105 244.214a4.922 4.922 0 0 1-4.925 4.922l-7.228.003a4.923 4.923 0 0 1-4.925-4.925 4.921 4.921 0 0 1 4.925-4.925h7.228a4.923 4.923 0 0 1 4.925 4.925zM174.808 257.827a4.924 4.924 0 0 0 0 6.965l5.115 5.115a4.92 4.92 0 0 0 6.962 0 4.927 4.927 0 0 0 0-6.968l-5.109-5.112a4.927 4.927 0 0 0-6.968 0zM186.452 244.214a4.924 4.924 0 0 0 4.925 4.922l7.228.003a4.923 4.923 0 0 0 4.925-4.925 4.92 4.92 0 0 0-4.925-4.925h-7.228a4.923 4.923 0 0 0-4.925 4.925z"/><path fill="#161616" d="M150.202 188.814a4.546 4.546 0 0 1-3.399-1.527l-25.586-28.813c-2.972-3.524-4.566-7.882-4.566-12.365 0-10.5 8.544-19.044 19.044-19.044a18.99 18.99 0 0 1 14.504 6.695 18.98 18.98 0 0 1 14.504-6.695c10.502 0 19.044 8.544 19.044 19.044a19.05 19.05 0 0 1-4.277 12.017 5.15 5.15 0 0 1-.281.348L153.6 187.286a4.544 4.544 0 0 1-3.398 1.528zm-14.507-52.658c-5.488 0-9.951 4.464-9.951 9.951a9.96 9.96 0 0 0 2.35 6.414l22.108 24.897 21.995-24.767.107-.13a9.955 9.955 0 0 0 2.35-6.414c0-5.488-4.464-9.951-9.951-9.951a9.926 9.926 0 0 0-9.928 9.487 4.545 4.545 0 0 1-6.014 4.09 4.552 4.552 0 0 1-3.139-4.102 9.927 9.927 0 0 0-9.927-9.475z"/></g></svg>