<svg xmlns="http://www.w3.org/2000/svg" xml:space="preserve" width="2048" height="2048" style="shape-rendering:geometricPrecision;text-rendering:geometricPrecision;image-rendering:optimizeQuality;fill-rule:evenodd;clip-rule:evenodd"><defs><style>.fil0{fill:#424242;fill-rule:nonzero}</style></defs><g id="Layer_x0020_1"><g id="_326850896"><path id="_326850968" class="fil0" d="M288.063 1266.54h623c17.673 0 32 14.328 32 32v325.002c0 17.673-14.327 32-32 32H803.44L700.336 1758.65l.002.002c-12.496 12.496-32.759 12.496-45.255 0l-.177-.182-102.926-102.926H288.064c-17.673 0-32-14.328-32-32V1298.54c0-17.673 14.327-32 32-32zm135.7 223.896c-13.254 0-24 10.746-24 24s10.746 24 24 24h351.599c13.254 0 24-10.746 24-24s-10.746-24-24-24H423.763zm0-106.789c-13.254 0-24 10.746-24 24s10.746 24 24 24h351.599c13.254 0 24-10.746 24-24s-10.746-24-24-24H423.763z"/><path id="_326851376" d="M1259.62 688.313c-.171-5.995-.34-12.018-.34-18.015 0-22.081 2.851-44.653 10.858-65.343 6.022-15.564 15.095-29.761 25.729-42.567 12.407-14.942 29.276-29.67 43.825-42.545 11.234-9.943 28.767-25.82 36.303-38.904 4.772-8.285 6.977-17.242 6.977-26.799 0-19.466-7.955-35.172-21.823-48.65-15.14-14.714-33.256-21.369-54.308-21.369-19.715 0-37.054 5.623-51.539 19.146-17.079 15.942-24.497 41.797-28.009 64.137l-2.395 15.239-91.476-10.97 1.95-15.922c5.25-42.857 20.68-83.167 53.629-112.287 32.685-28.886 73.931-39.463 116.84-39.463 45.208 0 88.534 11.279 122.485 42.31 30.466 27.847 46.88 62.548 46.88 103.94 0 23.14-5.432 45.138-16.691 65.353-13.906 24.97-39.366 49.497-60.601 68.314-7.825 6.935-15.61 14.021-23.002 21.417-4.13 4.13-8.693 8.782-12.144 13.503-4.941 6.757-8.288 14.388-10.484 22.44-3.673 13.468-4.065 32.958-4.329 46.882l-.297 15.697h-87.595l-.442-15.543zm-3.563 133.123v-98.79h98.678v98.79h-98.678z" style="fill:#424242"/><path id="_326851160" class="fil0" d="m676.537 1134.86-267.203-63.519 7.375-31.125-7.401 31.132c-14.878-3.536-24.836-16.933-24.6-31.619V843.506c-61.107-58.338-100.083-129.233-117.643-201.118-15.805-64.705-14.305-130.336 3.96-188.6 18.651-59.501 54.694-111.423 107.6-147.292 46.662-31.637 105.852-50.445 177.006-50.445 25.12 0 49.042 1.957 71.702 5.733 75.36 12.558 133.613 45.426 173.395 93.69 39.721 48.19 60.228 110.79 60.228 182.973 0 18.69-1.422 38.227-4.29 58.518l71.783 118.597.031-.019c9.151 15.118 4.312 34.794-10.806 43.945a31.847 31.847 0 0 1-16.85 4.626H870.14c.59 10.523 1.212 20.731 1.799 30.346 2.06 33.741 3.677 60.225 2.248 81.966-5.194 78.97-35.63 96.489-151.63 91.492l-5.64 137.335-31.875-1.25 31.974 1.312c-.724 17.658-15.629 31.386-33.286 30.662a32.079 32.079 0 0 1-7.194-1.118z"/><path id="_326850848" class="fil0" d="m1631.42 1696.16 7.375 31.126-267.203 63.518a32.078 32.078 0 0 1-7.194 1.118c-17.658.724-32.562-13.004-33.286-30.662l31.973-1.312-31.875 1.25-5.639-137.335c-116 4.997-146.437-12.523-151.63-91.492-1.43-21.74.187-48.225 2.248-81.966.587-9.615 1.21-19.823 1.799-30.347h-30.683a31.847 31.847 0 0 1-16.85-4.625c-15.119-9.151-19.958-28.827-10.807-43.945l.031.019 71.783-118.597c-2.868-20.292-4.29-39.828-4.29-58.518 0-72.184 20.508-134.783 60.228-182.973 39.782-48.265 98.035-81.132 173.395-93.69 22.66-3.776 46.583-5.733 71.702-5.733 71.155 0 130.344 18.808 177.007 50.445 52.906 35.869 88.948 87.79 107.6 147.292 18.265 58.264 19.765 123.894 3.96 188.6-17.56 71.886-56.536 142.78-117.643 201.118v196.223c.236 14.686-9.722 28.083-24.6 31.62l-7.401-31.133z"/></g></g><path style="fill:none" d="M0 0h2048v2048H0z"/></svg>