<svg xmlns="http://www.w3.org/2000/svg" viewBox="0 0 300 300" xml:space="preserve"><path fill="#9AD7D2" d="m234.251 102.304-32.41-32.409h-99.578l-32.407 32.409s18.441 120.489 81.979 131.105v.09c.077-.012.139-.035.218-.044.071.009.139.032.216.044v-.09c63.538-10.616 81.982-131.105 81.982-131.105z"/><path fill="#ABEDE6" d="m90.985 102.304 32.407-32.409h-21.129l-32.407 32.409s18.441 120.489 81.979 131.105v.09c.077-.012.139-.035.218-.044.071.009.139.032.216.044v-.09a54.039 54.039 0 0 0 10.347-2.831c-55.21-21.048-71.631-128.274-71.631-128.274z"/><path fill="#FE6F80" d="M144.896 175.609a7.634 7.634 0 0 1-5.397-2.236l-22.302-22.302a7.63 7.63 0 0 1 0-10.792 7.628 7.628 0 0 1 10.791 0l16.908 16.905 40.167-40.167a7.63 7.63 0 0 1 10.791 0 7.626 7.626 0 0 1 0 10.792l-45.564 45.564a7.63 7.63 0 0 1-5.394 2.236z"/><path fill="#9AD7D2" d="M152.057 248.119a6.046 6.046 0 0 1 6.041 6.044v10.788a6.043 6.043 0 0 1-6.041 6.04 6.042 6.042 0 0 1-6.044-6.04v-10.788a6.045 6.045 0 0 1 6.044-6.044zM152.057 29.009a6.046 6.046 0 0 1 6.041 6.044V45.84a6.042 6.042 0 0 1-12.085 0V35.053a6.045 6.045 0 0 1 6.044-6.044zM248.117 149.997a6.047 6.047 0 0 1 6.047-6.04h10.788a6.043 6.043 0 0 1 0 12.085h-10.788a6.046 6.046 0 0 1-6.047-6.045zM29.01 149.997a6.044 6.044 0 0 1 6.044-6.04h10.788a6.042 6.042 0 0 1 6.038 6.04 6.04 6.04 0 0 1-6.038 6.045H35.053a6.043 6.043 0 0 1-6.043-6.045zM232.361 230.301a6.046 6.046 0 0 1 8.546.003l7.627 7.627a6.048 6.048 0 0 1 .003 8.546 6.045 6.045 0 0 1-8.549.002l-7.627-7.629a6.041 6.041 0 0 1 0-8.549zM55.577 53.519a6.046 6.046 0 0 1 8.546.003l7.63 7.629a6.047 6.047 0 0 1 0 8.543 6.047 6.047 0 0 1-8.549.003l-7.627-7.629a6.047 6.047 0 0 1 0-8.549zM232.358 69.693a6.048 6.048 0 0 1 .003-8.546l7.627-7.627a6.042 6.042 0 1 1 8.549 8.545l-7.63 7.627a6.04 6.04 0 0 1-8.549.001zM55.577 246.475a6.043 6.043 0 0 1 .003-8.544l7.63-7.628a6.043 6.043 0 0 1 8.543 0 6.045 6.045 0 0 1 0 8.546l-7.627 7.628a6.046 6.046 0 0 1-8.549-.002z"/><g><path fill="#161616" d="M151.835 238.036a4.53 4.53 0 0 1-1.647-.31C84.898 225.769 66.14 108.019 65.369 102.99a4.53 4.53 0 0 1 1.278-3.895l32.409-32.408a4.535 4.535 0 0 1 3.208-1.329h99.578c1.202 0 2.357.478 3.208 1.329l32.41 32.408a4.533 4.533 0 0 1 1.276 3.895c-.236 1.557-6.023 38.514-22.204 73.682a4.546 4.546 0 0 1-6.017 2.226 4.536 4.536 0 0 1-2.224-6.019c13.417-29.167 19.584-60.506 21.097-69.023l-29.424-29.424h-95.821l-29.421 29.421c2.899 16.233 22.783 115.255 77.33 124.989 17.395-3.104 32.983-15.66 46.341-37.325a4.535 4.535 0 0 1 6.242-1.481 4.535 4.535 0 0 1 1.48 6.243c-14.74 23.913-32.348 37.863-52.34 41.474a4.42 4.42 0 0 1-1.701.278 4.74 4.74 0 0 1-.239.005zm1.158-.146h-.003.003zm.006-.002h-.003.003zm.006-.001h-.003.003z"/><path fill="#161616" d="M144.896 175.609a7.634 7.634 0 0 1-5.397-2.236l-22.302-22.302a7.63 7.63 0 0 1 0-10.792 7.628 7.628 0 0 1 10.791 0l16.908 16.905 40.167-40.167a7.63 7.63 0 0 1 10.791 0 7.626 7.626 0 0 1 0 10.792l-45.564 45.564a7.63 7.63 0 0 1-5.394 2.236zM152.057 275.528c-5.835 0-10.582-4.745-10.582-10.578v-10.788c0-5.834 4.747-10.581 10.582-10.581 5.834 0 10.578 4.747 10.578 10.581v10.788c-.001 5.833-4.744 10.578-10.578 10.578zm0-22.872a1.51 1.51 0 0 0-1.508 1.507v10.788a1.505 1.505 0 0 0 3.011 0v-10.788c0-.83-.673-1.507-1.503-1.507zM152.057 56.418c-5.835 0-10.582-4.745-10.582-10.578V35.052c0-5.834 4.747-10.581 10.582-10.581 5.834 0 10.578 4.747 10.578 10.581V45.84c-.001 5.833-4.744 10.578-10.578 10.578zm0-22.872a1.51 1.51 0 0 0-1.508 1.507V45.84a1.505 1.505 0 0 0 3.011 0V35.052c0-.83-.673-1.506-1.503-1.506zM264.951 160.579h-10.788c-5.837 0-10.584-4.747-10.584-10.582 0-5.833 4.747-10.578 10.584-10.578h10.788c5.834 0 10.578 4.745 10.578 10.578 0 5.835-4.744 10.582-10.578 10.582zm-10.787-12.085c-.833 0-1.509.675-1.509 1.504a1.51 1.51 0 0 0 1.509 1.508h10.788a1.506 1.506 0 0 0 0-3.012h-10.788zM45.839 160.579H35.052c-5.834 0-10.581-4.747-10.581-10.582 0-5.833 4.747-10.578 10.581-10.578H45.84c5.833 0 10.578 4.745 10.578 10.578-.001 5.835-4.746 10.582-10.579 10.582zm-10.787-12.085c-.83 0-1.507.675-1.507 1.504a1.51 1.51 0 0 0 1.507 1.508H45.84a1.506 1.506 0 0 0 0-3.012H35.052zM244.259 252.779a10.543 10.543 0 0 1-7.479-3.093l-7.627-7.628a10.503 10.503 0 0 1-3.102-7.482c0-2.827 1.102-5.484 3.102-7.484 4.124-4.121 10.838-4.122 14.961.005l7.627 7.627c4.124 4.124 4.127 10.836.003 14.961a10.552 10.552 0 0 1-7.485 3.094zm-11.898-22.478 3.208 3.209a1.491 1.491 0 0 0-.443 1.065c0 .233.056.681.44 1.063l7.63 7.631a1.507 1.507 0 0 0 2.13-2.131l-7.627-7.627a1.513 1.513 0 0 0-2.13-.002l-3.208-3.208zM67.474 75.995c-2.709 0-5.416-1.03-7.476-3.091l-7.628-7.628a10.51 10.51 0 0 1-3.099-7.481c0-2.827 1.1-5.485 3.1-7.484a10.5 10.5 0 0 1 7.478-3.096h.001c2.827 0 5.485 1.1 7.482 3.099l7.627 7.628c4.124 4.121 4.125 10.832.001 14.958a10.556 10.556 0 0 1-7.486 3.095zm-7.626-19.706c-.233 0-.681.056-1.062.437a1.511 1.511 0 0 0-.001 2.133l7.628 7.628a1.504 1.504 0 0 0 2.13-.005 1.504 1.504 0 0 0 0-2.124l-7.628-7.63a1.51 1.51 0 0 0-1.067-.439zM236.632 76.002a10.515 10.515 0 0 1-7.482-3.102l-.003-.001c-4.121-4.127-4.118-10.836.006-14.96l7.627-7.627c4.124-4.127 10.838-4.127 14.961-.003 4.127 4.127 4.13 10.839.003 14.964l-7.63 7.628a10.506 10.506 0 0 1-7.482 3.101zm-1.066-9.517a1.51 1.51 0 0 0 1.066.443c.233 0 .679-.058 1.063-.442l7.633-7.63a1.508 1.508 0 0 0-.003-2.131 1.512 1.512 0 0 0-2.13.003l-7.627 7.627a1.51 1.51 0 0 0-.002 2.13zM59.852 252.783a10.51 10.51 0 0 1-7.484-3.1 10.5 10.5 0 0 1-3.096-7.479c0-2.827 1.1-5.485 3.099-7.482L60 227.095c4.121-4.124 10.832-4.125 14.959-.002 4.125 4.128 4.127 10.841.003 14.963l-7.628 7.628a10.51 10.51 0 0 1-7.482 3.099zm7.627-19.712c-.385 0-.77.146-1.062.44l-7.63 7.628c-.384.384-.44.833-.44 1.066 0 .232.056.681.437 1.062a1.513 1.513 0 0 0 2.133.001l7.628-7.628a1.51 1.51 0 0 0-.004-2.13 1.5 1.5 0 0 0-1.062-.439z"/></g></svg>