<?xml version="1.0" standalone="no"?>
<!DOCTYPE svg PUBLIC "-//W3C//DTD SVG 20010904//EN"
 "http://www.w3.org/TR/2001/REC-SVG-20010904/DTD/svg10.dtd">
<svg version="1.0" xmlns="http://www.w3.org/2000/svg"
 width="612.000000pt" height="490.000000pt" viewBox="0 0 612.000000 490.000000"
 preserveAspectRatio="xMidYMid meet">
<metadata>
Created by potrace 1.16, written by Peter Selinger 2001-2019
</metadata>
<g transform="translate(0.000000,490.000000) scale(0.100000,-0.100000)"
fill="#000000" stroke="none">
<path d="M3825 4183 c-11 -2 -103 -27 -205 -55 -102 -27 -257 -69 -345 -93
-88 -24 -243 -66 -345 -94 -102 -27 -210 -57 -240 -65 -30 -8 -138 -37 -240
-65 -102 -27 -210 -57 -240 -65 -284 -75 -512 -140 -546 -156 -56 -27 -103
-76 -130 -135 -27 -58 -30 -124 -14 -318 18 -201 10 -184 83 -186 289 -7 561
-138 696 -336 81 -119 117 -299 108 -542 -4 -128 -10 -176 -32 -253 -14 -52
-33 -105 -41 -117 l-14 -23 173 0 174 0 154 -255 c85 -141 159 -264 164 -273
48 -86 190 -311 192 -305 1 4 30 180 63 390 33 211 63 396 66 413 l7 30 244 0
c144 0 242 -4 239 -9 -7 -11 3 -41 13 -41 4 0 12 12 18 27 10 26 10 25 5 -11
-4 -31 -2 -37 8 -31 9 5 11 4 6 -4 -6 -9 -11 -9 -24 1 -14 12 -14 10 -3 -10 7
-12 17 -20 23 -16 7 5 8 2 3 -6 -4 -7 -3 -15 2 -19 5 -3 16 -15 24 -27 40 -60
104 -124 116 -120 8 3 11 2 8 -4 -3 -5 6 -19 20 -32 27 -26 28 -18 -15 -141
-16 -47 -18 -62 -8 -80 10 -20 10 -21 -5 -8 -15 12 -17 11 -17 -3 0 -9 -10
-45 -21 -79 -12 -34 -23 -72 -24 -85 -2 -13 -9 -29 -15 -37 -18 -21 -5 -18 35
8 19 12 35 28 35 35 0 7 4 10 10 7 13 -8 52 14 45 25 -3 5 0 12 6 16 8 4 9 3
5 -4 -12 -19 3 -14 51 19 35 24 42 34 32 41 -11 8 -10 9 4 4 20 -6 69 13 61
25 -3 5 2 6 10 3 9 -3 16 -1 16 5 0 6 5 11 12 11 6 0 25 11 42 23 33 25 73 40
120 43 18 2 25 -1 17 -6 -7 -4 -21 -5 -31 -3 -10 3 -21 -1 -26 -8 -5 -9 -2
-10 10 -6 9 4 27 0 40 -8 28 -19 124 -48 134 -41 5 3 26 -1 48 -8 55 -19 144
-29 124 -15 -12 9 -11 9 5 3 72 -26 258 -26 330 0 17 7 17 6 5 -4 -13 -9 -12
-11 5 -6 11 2 53 10 93 16 56 9 72 16 72 28 0 14 2 14 9 3 7 -11 14 -10 40 8
17 12 36 21 43 20 7 -2 30 5 50 13 26 12 36 22 34 35 -2 10 -1 12 1 6 6 -18 9
-17 49 13 31 24 37 44 13 44 -6 0 -7 -4 -4 -10 3 -5 1 -10 -4 -10 -6 0 -11 4
-11 9 0 17 20 23 35 11 12 -10 26 -1 78 51 72 73 142 172 132 189 -3 6 -3 10
2 9 21 -4 22 3 7 32 -8 17 -11 28 -5 25 6 -4 11 -2 11 4 0 6 5 8 10 5 6 -3 10
-11 10 -16 0 -6 -4 -7 -10 -4 -5 3 -10 2 -10 -4 0 -5 4 -12 9 -16 15 -9 63
158 56 191 -5 22 -4 25 4 14 8 -12 11 -8 11 17 0 17 -4 43 -10 58 -7 17 -7 24
0 20 18 -11 3 122 -19 170 -5 11 -19 40 -31 65 -25 55 -38 77 -67 114 -21 26
-44 28 -42 3 0 -9 2 -8 6 1 2 6 9 9 15 6 6 -4 5 -10 -3 -15 -7 -4 -10 -11 -6
-16 5 -4 13 -1 18 7 9 13 10 13 7 1 -7 -23 -26 -24 -38 -2 -7 15 -8 27 -1 40
8 14 7 22 -7 32 -16 13 -16 13 -2 -5 12 -15 6 -13 -27 7 -29 18 -43 23 -46 14
-4 -9 -6 -9 -6 0 -2 21 20 25 40 7 10 -9 19 -12 19 -6 0 12 -40 38 -53 34 -5
-1 -6 2 -3 7 4 5 -12 22 -34 38 -23 15 -57 41 -77 56 -20 15 -43 25 -50 22 -8
-2 -12 -1 -9 4 5 8 -27 32 -93 68 -12 7 -28 10 -34 6 -5 -3 -7 -1 -4 4 8 14
-170 93 -207 93 -16 0 -25 4 -21 10 3 6 0 10 -7 11 -7 0 -22 3 -33 5 -11 3
-28 5 -37 5 -10 0 -18 4 -18 9 0 4 -16 11 -36 14 -19 4 -43 10 -51 13 -12 5
-14 3 -8 -8 6 -9 -2 -7 -20 6 -27 17 -48 20 -202 20 -95 1 -175 4 -178 7 -3 3
5 221 19 484 26 494 26 549 -8 643 -58 161 -204 292 -373 336 -53 14 -172 18
-218 8z m-690 -708 c126 -33 216 -108 256 -214 17 -44 20 -71 17 -131 -7 -108
-29 -145 -171 -282 -115 -111 -121 -119 -123 -160 l-2 -43 -115 -3 -114 -3 -7
32 c-22 110 3 161 147 292 75 69 99 97 107 127 33 123 -120 202 -210 107 -17
-18 -40 -48 -50 -69 l-19 -36 -106 45 c-71 31 -105 51 -105 62 0 32 59 139 96
175 104 101 253 139 399 101z m-28 -990 c57 -34 83 -85 83 -163 0 -45 -5 -67
-23 -93 -65 -97 -195 -114 -281 -38 -97 85 -79 239 34 297 61 31 130 30 187
-3z m1773 -106 c39 -21 54 -24 45 -9 -3 6 -1 10 5 10 7 0 10 -6 7 -12 -2 -7
13 -33 35 -57 21 -24 38 -50 38 -57 0 -7 5 -14 10 -16 6 -2 12 -35 12 -74 2
-78 -19 -133 -70 -187 -15 -16 -22 -27 -16 -25 7 2 12 -1 13 -7 0 -5 -8 -9
-17 -7 -9 1 -41 -18 -69 -44 -41 -35 -53 -52 -53 -74 0 -16 6 -31 13 -34 6 -2
-32 -4 -87 -3 l-98 2 -16 39 c-14 35 -14 41 2 66 9 16 15 34 13 42 -2 7 -2 10
0 7 2 -3 20 10 41 30 20 20 54 50 74 68 36 31 68 80 68 105 0 9 -3 9 -10 -2
-8 -11 -9 -8 -4 12 8 37 -31 63 -84 55 -42 -7 -96 -61 -89 -88 5 -17 -8 -19
-30 -6 -7 5 -13 4 -13 0 0 -5 -9 -9 -21 -9 -17 0 -18 2 -6 11 12 9 6 14 -34
28 -27 10 -54 15 -59 12 -18 -11 -21 21 -5 58 9 21 13 43 9 49 -4 6 -3 8 4 4
15 -9 21 15 10 38 -14 26 5 44 27 26 14 -11 20 -9 43 15 20 20 22 26 9 21 -11
-3 -16 -2 -12 5 4 5 15 7 26 4 10 -3 33 1 51 9 18 8 44 17 58 19 45 9 144 -5
180 -24z m-61 -690 c-8 -5 -8 -9 1 -14 7 -4 17 -1 22 6 7 11 8 9 4 -5 -4 -11
0 -27 11 -38 24 -27 24 -129 -1 -156 -13 -15 -14 -21 -4 -25 10 -3 9 -9 -5
-23 -16 -17 -17 -17 -11 -1 7 20 1 21 -29 5 -12 -6 -52 -12 -90 -12 -37 -1
-63 1 -57 2 5 2 10 8 10 14 0 6 -7 8 -15 4 -8 -3 -14 0 -12 7 1 7 -9 11 -28
11 -28 -2 -45 9 -45 30 0 6 7 1 15 -10 14 -19 14 -19 15 1 l1 20 9 -20 c10
-24 12 -10 3 23 -4 18 -8 20 -15 10 -12 -19 2 70 18 110 7 17 18 32 25 32 6 0
9 6 6 14 -4 10 1 12 16 9 15 -3 18 -2 9 4 -8 6 19 9 73 9 47 0 80 -3 74 -7z"/>
</g>
</svg>
