<svg xmlns="http://www.w3.org/2000/svg" width="128" height="128"><rect x="21.737" y="15.154" width="84.527" height="106.539" rx="5" fill="#9b8e99"/><path fill="#dff6fd" d="M31.806 25.223h64.389v86.401H31.806z"/><path fill="#f07281" d="M73.388 47.481h-6.312v-6.312h-6.152v6.312h-6.312v6.153h6.312v6.312h6.152v-6.312h6.312v-6.153z"/><path d="M78.188 15.154v11.525a2 2 0 0 1-2 2H51.812a2 2 0 0 1-2-2V15.154z" fill="#fee45a"/><path fill="#fedf30" d="M53.094 6.307h21.811v8.847H53.094z"/><path d="M106.264 39.37a1.75 1.75 0 0 0-1.75 1.75v4.5a1.75 1.75 0 1 0 3.5 0v-4.5a1.751 1.751 0 0 0-1.75-1.75z"/><path d="M101.264 13.4H76.655V6.3a1.75 1.75 0 0 0-1.75-1.75H53.1a1.75 1.75 0 0 0-1.75 1.75v7.1H26.736a6.758 6.758 0 0 0-6.75 6.75v72.565a1.75 1.75 0 0 0 3.5 0V20.154a3.254 3.254 0 0 1 3.25-3.25h21.326v6.569H31.806a1.749 1.749 0 0 0-1.75 1.75v86.4a1.75 1.75 0 0 0 1.75 1.75h64.388a1.75 1.75 0 0 0 1.75-1.75v-86.4a1.749 1.749 0 0 0-1.75-1.75H79.937V16.9h21.327a3.254 3.254 0 0 1 3.25 3.25v11.313a1.75 1.75 0 1 0 3.5 0V20.154a6.758 6.758 0 0 0-6.75-6.754zM54.845 8.057h18.31V13.4h-18.31zm39.6 101.817H33.556v-82.9h14.536a3.744 3.744 0 0 0 3.72 3.456h24.375a3.744 3.744 0 0 0 3.721-3.456h14.536zM76.437 26.679a.25.25 0 0 1-.25.25H51.812a.251.251 0 0 1-.25-.25V16.9h24.875z"/><path d="M106.264 53.106a1.75 1.75 0 0 0-1.75 1.75v61.837a3.254 3.254 0 0 1-3.25 3.25H26.736a3.254 3.254 0 0 1-3.25-3.25v-14.615a1.75 1.75 0 0 0-3.5 0v14.615a6.758 6.758 0 0 0 6.75 6.75h74.528a6.758 6.758 0 0 0 6.75-6.75V54.856a1.751 1.751 0 0 0-1.75-1.75zM54.611 55.384h4.563v4.562a1.75 1.75 0 0 0 1.75 1.75h6.152a1.75 1.75 0 0 0 1.75-1.75v-4.562h4.563a1.751 1.751 0 0 0 1.75-1.75v-6.153a1.751 1.751 0 0 0-1.75-1.75h-4.563v-4.562a1.75 1.75 0 0 0-1.75-1.75h-6.152a1.75 1.75 0 0 0-1.75 1.75v4.562h-4.563a1.75 1.75 0 0 0-1.75 1.75v6.153a1.75 1.75 0 0 0 1.75 1.75zm1.75-6.153h4.563a1.75 1.75 0 0 0 1.75-1.75v-4.562h2.652v4.562a1.75 1.75 0 0 0 1.75 1.75h4.563v2.653h-4.563a1.749 1.749 0 0 0-1.75 1.75V58.2h-2.652v-4.566a1.749 1.749 0 0 0-1.75-1.75h-4.563z"/><path d="M44.3 67.993a1.75 1.75 0 0 0 0 3.5h39.4a1.75 1.75 0 1 0 0-3.5zM83.7 87.587H44.3a1.75 1.75 0 0 0 0 3.5h39.4a1.75 1.75 0 0 0 0-3.5zM83.7 77.79H44.3a1.75 1.75 0 0 0 0 3.5h39.4a1.75 1.75 0 0 0 0-3.5zM64 97.384H44.3a1.75 1.75 0 0 0 0 3.5H64a1.75 1.75 0 0 0 0-3.5z"/></svg>