<svg xmlns="http://www.w3.org/2000/svg" viewBox="0 0 48 48"><defs><style>.cls-1{fill:#f6ccaf}.cls-2{fill:#ffdec7}.cls-5{fill:#edb996}.cls-6{fill:#dad7e5}.cls-7{fill:#edebf2}</style></defs><g id="Important_Document" data-name="Important Document"><path class="cls-1" d="M40 5c0 27 0 25.73-.06 25.75L38 29l-1.94 1.75-2.56-.55-.8 2.5-2.5.8.55 2.56L29 38l1.75 1.94-.23 1.06H12a4 4 0 0 0-4 4V5a6 6 0 0 0 2 4.46c2.2 2 3.93 1.54 11 1.54a3 3 0 0 0 6 0h7a6 6 0 0 0 6-6z"/><path class="cls-2" d="M40 5c0 27 0 25.73-.06 25.75L38 29c-2.34 2.12-1.76 1.79-2.66 1.6l-1.84-.4c-.52 1.61-.33 1-.8 2.5l-2.5.8c.1.46 0-.06.55 2.56L29 38l.9 1A19.91 19.91 0 0 1 10 19.1V5z"/><path d="m45.25 39.94.55 2.56-2.5.8-.8 2.5-2.56-.55L38 47l-1.94-1.75-2.56.55-.8-2.5-2.5-.8c.38-1.8.26-1.23.55-2.56L29 38l1.75-1.94-.55-2.56 2.5-.8.8-2.5 2.56.55L38 29c2.14 1.93 1.9 1.76 2 1.74l2.5-.54.8 2.5 2.5.8-.55 2.56L47 38z" style="fill:#82bcf4"/><path d="M41.94 43.25 40 45l-1.94-1.75-2.56.55-.8-2.5-2.5-.8c.38-1.8.26-1.23.55-2.56L31 36l1.75-1.94-.28-1.29-2.27.73.55 2.56L29 38l1.75 1.94c-.29 1.33-.17.76-.55 2.56l2.5.8.8 2.5 2.56-.55L38 47l1.94-1.75 2.56.55.73-2.27z" style="fill:#6fabe6"/><path class="cls-5" d="M40 3c0 2.25.21 4.06-1.54 6-2.27 2.57-4.64 2-11.46 2a3 3 0 0 0-6 0h-7a6 6 0 0 1-6-6V3a2 2 0 0 1 2-2h28a2 2 0 0 1 2 2z"/><path class="cls-5" d="M40 3c0 2.25.21 4.06-1.54 6-2.27 2.57-4.64 2-11.46 2 0-3.91-6-4-6 0h-7a6 6 0 0 1-6-6V3a2 2 0 0 1 2-2h28a2 2 0 0 1 2 2z"/><path class="cls-1" d="M40 5c0 1.69 0 3.25-1.54 5-2.27 2.57-4.64 2-11.46 2 0-3.93-6-4-6 0-7.14 0-8.85.41-11-1.54v-1c2.2 2 3.93 1.54 11 1.54a3 3 0 0 1 6 0c6.77 0 9.19.56 11.46-2A5.93 5.93 0 0 0 40 5z"/><path class="cls-1" d="M40 3c0 2.25.21 4.06-1.54 6H26.23a3 3 0 0 0-4.46 0H18a8 8 0 0 1-8-8h28a2 2 0 0 1 2 2z"/><path class="cls-6" d="M22.8 11.6c-1.89 2.53-2.74 3.2-2 4.23a3.39 3.39 0 0 1-.42 4.25l-1.63 1.63a1 1 0 0 1-1.42-1.42l1.63-1.63a1.36 1.36 0 0 0 .17-1.72 3.39 3.39 0 0 1 .11-3.88l2-2.66a1 1 0 0 1 1.56 1.2z"/><path class="cls-7" d="M21.49 10.15c2.18 1.23-3 3.77-1.73 5.68a3.39 3.39 0 0 1-.42 4.25c-1.88 1.88-1.6 1.63-1.84 1.77.84.48 1.16-.09 2.84-1.77a3.39 3.39 0 0 0 .42-4.25c-.7-1 .2-1.77 2-4.23a1 1 0 0 0-1.27-1.45z"/><path class="cls-1" d="M19.2 13.06a3.39 3.39 0 0 0-.11 3.88 1.36 1.36 0 0 1-.17 1.72l-1.63 1.63a1 1 0 0 0 0 1.42 1.53 1.53 0 0 0 .21.14 1 1 0 0 1-1.21-1.56l1.63-1.63a1.36 1.36 0 0 0 .17-1.72 3.39 3.39 0 0 1 .11-3.88c1-1.33.65-.86 1.55-2.06h1c-.9 1.2-.54.73-1.55 2.06z"/><path class="cls-6" d="M26 21a1 1 0 0 1-.71-1.71l.59-.58a1 1 0 0 0 0-1.42C24.77 16.19 25 15.44 25 11a1 1 0 0 1 2 0c0 4.37-.1 4.48.29 4.88a3 3 0 0 1 0 4.24c-.67.68-.81.88-1.29.88z"/><path class="cls-7" d="M27.29 15.88c-.39-.4-.29-.36-.29-4.88a1 1 0 0 0-1.5-.85c.67.4.5.61.5 5a1.05 1.05 0 0 0 .29.71 3 3 0 0 1 0 4.24c-.72.72-.57.59-.79.72.78.47 1.23-.16 1.79-.72a3 3 0 0 0 0-4.22z"/><path class="cls-1" d="m25.29 19.29.59-.58a1 1 0 0 0 0-1.42 3 3 0 0 1-.88-2.12c0-4.46-.16-4.63.5-5A1 1 0 0 0 24 11c0 4.36-.23 5.18.88 6.29a1 1 0 0 1 0 1.42l-.59.58a1 1 0 0 0 1.21 1.55 1 1 0 0 1-.21-1.55z"/><path d="M27 11a3 3 0 1 1-4.56-2.56A3 3 0 0 1 27 11z" style="fill:#db5669"/><path class="cls-5" d="M21.45 9.44A2.88 2.88 0 0 0 21 11h-.82a2.91 2.91 0 0 1 1.27-1.56z"/><path d="M26.56 12.56a3 3 0 0 1-4.12-4.12 3 3 0 0 1 4.12 4.12z" style="fill:#f26674"/><path class="cls-1" d="M38 47c-30.4 0-28.59.25-29.41-.59-1.32-1.28-.3-3.88 1.41-4.87 1.29-.75.58-.54 20.52-.54l-.32 1.5 2.5.8c.65 2 .47 1.49.8 2.5l2.56-.55z"/><path class="cls-6" d="M37 41v-5a1 1 0 0 1 0-2h1a1 1 0 0 1 1 1v6a1 1 0 0 1-2 0z"/><path class="cls-2" d="M33.24 45H13.46A3.46 3.46 0 0 1 10 41.54c1.29-.75.58-.54 20.52-.54l-.32 1.5 2.5.8z"/><path class="cls-1" d="M36.45 30.4 36 30l-.66.6c.86.18.66.24 1.11-.2zM32.7 32.7l.37-1.16-1.57-.34-.67 2.1 1.87-.6z"/><path class="cls-5" d="M30.75 39.94 30.52 41h-1.78c0-.1.2.15-1.74-2 .39-.44-.29 0 2.9 0zM37.55 46.6l-1.49-1.35-2.56.55-.26-.8h-2.32l.58 1.8 2.56-.55.83.75c2.58 0 2.11.13 2.66-.4z"/><path class="cls-1" d="M33.24 45h-2.32l-.22-.7-2.5-.8c.39-1.82.27-1.25.54-2.5h1.78l-.32 1.5 2.5.8zM29 38l.9 1a18.87 18.87 0 0 1-2.73-.19l1.58-1.75-.55-2.56 2.07-.66.48 2.22z"/></g></svg>